<svg xmlns="http://www.w3.org/2000/svg" viewBox="0 0 323.63 194.9"><defs><style>.cls-1{fill:#aa7752;}</style></defs><g id="Capa_2" data-name="Capa 2"><g id="Capa_1-2" data-name="Capa 1"><path d="M0,6.87C1.75,3.13,4.16-.11,8.69,0c5,.16,7.27,3.8,9,8q31.91,76.26,63.9,152.49c.62,1.48,1.31,2.92,2.45,5.45,3.51-8.5,6.62-16,9.71-23.54q27.39-66.6,54.77-133.21a28.34,28.34,0,0,1,2.33-4.91C153.62.21,158.09-1,162.1,1.16c3.82,2,5.34,6.07,3.48,10.61Q155.08,37.42,144.31,63q-25.8,61.63-51.67,123.26c-.39.92-.74,1.85-1.19,2.73-1.75,3.45-4.23,6-8.41,5.93s-6.61-2.57-8.13-6.19Q67.08,170,59.26,151.26,30.79,83.21,2.31,15.17C1.56,13.39.77,11.63,0,9.86Z"/><path class="cls-1" d="M241.52,26.84c-1.26,2.54-2,3.91-2.63,5.36q-30.7,76.11-61.37,152.22c-.81,2-1.57,4-2.55,5.93-2,3.87-5.81,5.29-9.63,3.72a7.27,7.27,0,0,1-3.71-9.54q8.56-21.42,17.34-42.74Q206.3,75,233.73,8.25c1-2.5,2.53-5.22,4.61-6.78,4.33-3.23,9.7-.95,12.25,5.08,5.4,12.79,10.56,25.67,15.82,38.52l54.72,133.57c.44,1.07.92,2.13,1.34,3.21,2.34,6.09,1.11,10.39-3.49,12.19s-8.47-.36-11-6.4Q276.27,110.35,244.53,33C243.82,31.3,242.89,29.65,241.52,26.84Z"/></g></g></svg>