<?xml version="1.0" encoding="iso-8859-1"?>
<!-- Uploaded to: SVG Repo, www.svgrepo.com, Generator: SVG Repo Mixer Tools -->
<!DOCTYPE svg PUBLIC "-//W3C//DTD SVG 1.1//EN" "http://www.w3.org/Graphics/SVG/1.1/DTD/svg11.dtd">
<svg fill="#000000" height="800px" width="800px" version="1.1" id="Capa_1" xmlns="http://www.w3.org/2000/svg" xmlns:xlink="http://www.w3.org/1999/xlink" 
	 viewBox="0 0 403.006 403.006" xml:space="preserve">
<g>
	<path d="M258.596,178.051c-6.503-2.997-13.306-5.456-20.219-7.308c-2.399-0.642-4.867,0.781-5.512,3.182
		c-0.644,2.4,0.781,4.868,3.182,5.511c6.422,1.721,12.741,4.005,18.781,6.789c0.61,0.281,1.251,0.414,1.881,0.414
		c1.702,0,3.331-0.97,4.09-2.618C261.839,181.764,260.853,179.091,258.596,178.051z"/>
	<path d="M323.793,246.804c-9.678-24.345-26.387-44.871-48.322-59.36c-2.073-1.37-4.865-0.8-6.235,1.275
		c-1.37,2.074-0.799,4.865,1.274,6.235c20.393,13.47,35.926,32.549,44.92,55.175c0.701,1.765,2.394,2.839,4.183,2.839
		c0.554,0,1.116-0.103,1.661-0.319C323.583,251.73,324.711,249.113,323.793,246.804z"/>
	<path d="M331.133,273.417c-0.283-1.753-0.607-3.517-0.96-5.244c-0.497-2.435-2.881-4.002-5.311-3.506
		c-2.435,0.499-4.005,2.876-3.506,5.311c0.328,1.605,0.628,3.245,0.892,4.875c0.357,2.211,2.268,3.783,4.437,3.783
		c0.239,0,0.48-0.019,0.724-0.058C329.862,278.18,331.53,275.87,331.133,273.417z"/>
	<path d="M398.506,291.308h-41.809c-2.347-81.676-68.35-147.679-150.026-150.026v-7.531c6.557-1.945,11.356-8.017,11.356-15.196
		c0-8.743-7.113-15.856-15.856-15.856c-8.743,0-15.856,7.113-15.856,15.856c0,7.179,4.799,13.251,11.356,15.196v7.531
		c-81.676,2.347-147.679,68.35-150.026,150.026H4.5c-2.485,0-4.5,2.015-4.5,4.5c0,2.485,2.015,4.5,4.5,4.5h394.006
		c2.485,0,4.5-2.015,4.5-4.5C403.006,293.322,400.992,291.308,398.506,291.308z M195.315,118.554c0-3.78,3.076-6.856,6.856-6.856
		c3.78,0,6.856,3.076,6.856,6.856c0,3.78-3.076,6.856-6.856,6.856C198.391,125.41,195.315,122.335,195.315,118.554z
		 M202.171,150.211c78.776,0,143.134,62.889,145.521,141.097H56.651C59.038,213.1,123.395,150.211,202.171,150.211z"/>
</g>
</svg>