<?xml version="1.0" ?>
<!-- Uploaded to: SVG Repo, www.svgrepo.com, Generator: SVG Repo Mixer Tools -->
<svg width="800px" height="800px" viewBox="0 0 512 512" id="svg2793" style="fill-rule:evenodd;clip-rule:evenodd;stroke-linejoin:round;stroke-miterlimit:2;" version="1.1" xml:space="preserve" xmlns="http://www.w3.org/2000/svg" xmlns:cc="http://creativecommons.org/ns#" xmlns:dc="http://purl.org/dc/elements/1.1/" xmlns:rdf="http://www.w3.org/1999/02/22-rdf-syntax-ns#" xmlns:serif="http://www.serif.com/" xmlns:svg="http://www.w3.org/2000/svg">
<defs id="defs2797"/>
<g id="_12-Audience" style="display:inline" transform="translate(-1024,-2048)">
<g id="g2551" transform="translate(1257.63,2217.81)">
<path d="m 0,-19.49 c 0,-5.891 2.386,-11.653 6.553,-15.815 4.226,-4.227 9.843,-6.555 15.817,-6.555 5.973,0 11.589,2.328 15.823,6.562 4.16,4.155 6.545,9.917 6.545,15.808 V 0 c 0,5.89 -2.385,11.652 -6.553,15.815 -4.226,4.227 -9.843,6.555 -15.817,6.555 -5.972,0 -11.589,-2.328 -15.823,-6.563 C 2.386,11.652 0,5.89 0,0 Z m 22.37,71.86 c 13.988,0 27.139,-5.45 37.023,-15.338 C 69.145,27.292 74.738,13.794 74.738,0 v -19.49 c 0,-13.795 -5.593,-27.293 -15.337,-37.025 -9.892,-9.895 -23.044,-15.345 -37.033,-15.345 -13.987,0 -27.139,5.45 -37.023,15.337 C -24.407,-46.783 -30,-33.285 -30,-19.49 V 0 c 0,13.794 5.593,27.292 15.337,37.025 C -4.771,46.92 8.381,52.37 22.37,52.37" id="path2549" style="fill-rule:nonzero"/>
</g>
<g id="g2555" transform="translate(1280,2316.99)">
<path d="m 0,122.39 c -34.958,0 -67.477,-15.064 -90.078,-41.527 C -85.225,35.092 -46.674,0 0,0 46.674,0 85.225,35.092 90.078,80.863 67.476,107.326 34.958,122.39 0,122.39 M 83.398,3.515 C 60.838,-18.097 31.22,-30 0,-30 c -31.22,0 -60.838,11.903 -83.398,33.515 -22.487,21.542 -35.651,50.487 -37.066,81.501 -0.163,3.565 0.95,7.071 3.141,9.889 28.394,36.532 71.156,57.485 117.323,57.485 46.166,0 88.928,-20.952 117.323,-57.485 2.19,-2.817 3.304,-6.324 3.141,-9.889 C 119.049,54.002 105.885,25.057 83.398,3.515" id="path2553" style="fill-rule:nonzero"/>
</g>
<g id="g2559" transform="translate(1295,2111)">
<path d="m 0,386.006 v -3.013 c 0,-8.284 -6.716,-15 -15,-15 -8.284,0 -15,6.716 -15,15 v 3.013 c -94.808,-7.3 -170.705,-83.196 -178.005,-178.003 h 3.016 c 8.284,0 15,-6.716 15,-15 0,-8.285 -6.716,-15 -15,-15 h -3.016 C -200.705,83.196 -124.808,7.299 -30,0 v 3.012 c 0,8.285 6.716,15 15,15 8.284,0 15,-6.715 15,-15 V 0 c 94.808,7.299 170.705,83.196 178.005,178.003 h -3.016 c -8.284,0 -15,6.715 -15,15 0,8.284 6.716,15 15,15 h 3.016 C 170.705,302.81 94.808,378.706 0,386.006 M 226.001,178.003 H 208.067 C 200.653,66.649 111.355,-22.649 0,-30.063 v -17.934 c 0,-8.285 -6.716,-15 -15,-15 -8.284,0 -15,6.715 -15,15 v 17.934 c -111.355,7.414 -200.653,96.712 -208.067,208.066 H -256 c -8.284,0 -15,6.715 -15,15 0,8.284 6.716,15 15,15 h 17.933 c 7.414,111.354 96.712,200.651 208.067,208.065 v 17.935 c 0,8.284 6.716,15 15,15 8.284,0 15,-6.716 15,-15 v -17.935 c 111.355,-7.414 200.653,-96.711 208.067,-208.065 h 17.934 c 8.284,0 15,-6.716 15,-15 0,-8.285 -6.716,-15 -15,-15" id="path2557" style="fill-rule:nonzero"/>
</g>
</g>
</svg>