<svg id="Capa_1" data-name="Capa 1" xmlns="http://www.w3.org/2000/svg" viewBox="0 0 325.96 197.98"><defs><style>.cls-1{fill:#fff;}.cls-2{fill:#aa7752;}</style></defs><path class="cls-1" d="M116.19,330.91v-9h326v198H116.2q0-93,0-186c.78,1.76,1.57,3.52,2.31,5.3Q147,407.26,175.45,475.3l15.66,37.45c1.51,3.62,3.91,6.16,8.13,6.19s6.66-2.48,8.4-5.93c.45-.88.81-1.81,1.19-2.73Q234.68,448.66,260.51,387q10.71-25.57,21.27-51.21c1.86-4.54.33-8.58-3.48-10.61-4-2.14-8.48-.95-11.22,3.18a28.38,28.38,0,0,0-2.34,4.91Q237.35,399.89,210,466.5c-3.09,7.53-6.21,15-9.71,23.54-1.14-2.53-1.83-4-2.45-5.45q-32-76.23-63.9-152.49c-1.77-4.22-4-7.86-9-8C120.35,323.93,117.94,327.17,116.19,330.91Zm241.52,20c1.38,2.81,2.3,4.46,3,6.2q31.75,77.3,63.49,154.6c2.48,6,6.33,8.2,11,6.4s5.83-6.1,3.49-12.19c-.42-1.08-.9-2.14-1.34-3.21L382.61,369.11c-5.26-12.85-10.43-25.73-15.83-38.52-2.55-6-7.92-8.31-12.24-5.08-2.08,1.56-3.59,4.28-4.62,6.78Q322.44,399,295.17,465.83c-5.82,14.23-11.64,28.46-17.34,42.74a7.26,7.26,0,0,0,3.7,9.54c3.83,1.57,7.66.15,9.63-3.72,1-1.91,1.75-3.93,2.55-5.93l61.37-152.22C355.67,354.79,356.46,353.41,357.71,350.88Z" transform="translate(-116.19 -321.96)"/><path d="M116.19,330.91c1.75-3.74,4.16-7,8.69-6.83,5,.16,7.27,3.8,9,8q31.89,76.26,63.9,152.49c.62,1.48,1.31,2.92,2.45,5.45,3.5-8.5,6.62-16,9.71-23.54q27.38-66.6,54.76-133.21a28.38,28.38,0,0,1,2.34-4.91c2.74-4.13,7.21-5.32,11.22-3.18,3.81,2,5.34,6.07,3.48,10.61Q271.27,361.46,260.51,387q-25.81,61.64-51.68,123.26c-.38.92-.74,1.85-1.19,2.73-1.74,3.45-4.22,6-8.4,5.93s-6.62-2.57-8.13-6.19L175.45,475.3Q147,407.25,118.5,339.2c-.74-1.78-1.53-3.54-2.31-5.3Z" transform="translate(-116.19 -321.96)"/><path class="cls-2" d="M357.71,350.88c-1.25,2.53-2,3.91-2.63,5.36L293.71,508.46c-.8,2-1.57,4-2.55,5.93-2,3.87-5.8,5.29-9.63,3.72a7.26,7.26,0,0,1-3.7-9.54c5.7-14.28,11.52-28.51,17.34-42.74Q322.5,399,349.92,332.29c1-2.5,2.54-5.22,4.62-6.78,4.32-3.23,9.69-.95,12.24,5.08,5.4,12.79,10.57,25.67,15.83,38.52l54.72,133.57c.44,1.07.92,2.13,1.34,3.21,2.34,6.09,1.1,10.39-3.49,12.19s-8.48-.36-11-6.4q-31.77-77.3-63.49-154.6C360,355.34,359.09,353.69,357.71,350.88Z" transform="translate(-116.19 -321.96)"/></svg>